#!OML:ASF X:\für Bonn\!DataBase\2005_08_10_Bjorn_Final\c3d\bjorn.ASF
:FULLY-SPECIFIED
:DEGREES
108
root 1.81776 18.6417 3.55681 -178.353 -10.597 -180.664
lowerback -1.32134 -0.152344 9.35805
upperback 10.6361 -2.25424 1.6744
thorax 12.1332 -0.733469 -3.74424
lowerneck 0.0744703 6.77096 2.51329
upperneck 18.8168 9.36687 -9.3089
head 6.23957 3.60698 -2.90583
rclavicle 1.51076e-014 -1.35174e-014
rhumerus -28.0829 -18.2984 -82.2589
rradius 33.0853
rwrist 1.36288
rhand -8.16946 9.13285
rfingers 7.12502
rthumb 17.7458 -20.0774
lclavicle 1.51076e-014 -1.35174e-014
lhumerus -26.5231 -22.7366 93.9268
lradius 48.5114
lwrist -12.8421
lhand -23.7656 -13.2956
lfingers 7.12502
lthumb 2.70376 16.667
rfemur -25.5483 -5.23924 18.1723
rtibia 44.6398
rfoot -16.1678 15.6352
rtoes -6.75007
lfemur -3.00748 3.09654 -17.7472
ltibia 41.5701
lfoot -20.073 -0.224547
ltoes -15.9743
109
root 1.82484 18.6623 3.52086 -178.215 -10.4746 -180.791
lowerback -1.2294 -0.0697476 9.51396
upperback 10.6535 -2.15489 1.68958
thorax 12.1141 -0.67526 -3.80103
lowerneck 0.123183 6.85657 2.55325
upperneck 18.6383 9.51029 -9.44102
head 6.19204 3.68633 -2.94552
rclavicle 1.94809e-014 -2.22639e-014
rhumerus -27.9307 -18.1305 -82.2845
rradius 33.1488
rwrist 1.14141
rhand -8.19077 9.18941
rfingers 7.12502
rthumb 17.7253 -20.0227
lclavicle 1.94809e-014 -2.22639e-014
lhumerus -26.6513 -22.9485 94.0934
lradius 48.5702
lwrist -12.6776
lhand -23.753 -13.5925
lfingers 7.12502
lthumb 2.71589 16.37
rfemur -25.4019 -5.17385 18.0882
rtibia 44.3352
rfoot -16.1549 15.6392
rtoes -6.87429
lfemur -3.40062 2.86169 -17.9375
ltibia 42.2058
lfoot -19.4346 0.241584
ltoes -17.198
110
root 1.8312 18.6852 3.48597 -178.084 -10.3476 -180.918
lowerback -1.14984 0.0144573 9.6567
upperback 10.6977 -2.06227 1.71297
thorax 12.1348 -0.621673 -3.84346
lowerneck 0.106333 6.97302 2.54825
upperneck 18.4873 9.69927 -9.55005
head 6.16492 3.78413 -2.96532
rclavicle 7.95139e-015 3.18055e-015
rhumerus -27.7037 -17.9249 -82.3231
rradius 33.1946
rwrist 0.9314
rhand -8.20727 9.18221
rfingers 7.12502
rthumb 17.7094 -20.0313
lclavicle 7.95139e-015 3.18055e-015
lhumerus -26.7351 -23.1186 94.2404
lradius 48.6408
lwrist -12.5529
lhand -23.7482 -13.8912
lfingers 7.12502
lthumb 2.72056 16.0711
rfemur -25.241 -5.05095 17.9935
rtibia 44.0203
rfoot -16.1232 15.6206
rtoes -6.86508
lfemur -3.83031 2.62604 -18.1346
ltibia 42.9137
lfoot -18.8295 0.723977
ltoes -18.6976
111
root 1.8368 18.7048 3.45344 -177.959 -10.1885 -181.029
lowerback -1.08423 0.120817 9.82713
upperback 10.7667 -1.95087 1.73935
thorax 12.1982 -0.555699 -3.89684
lowerneck 0.0349998 7.10139 2.55349
upperneck 18.3693 9.91045 -9.67586
head 6.16079 3.88958 -2.98874
rclavicle 1.55052e-014 -3.65764e-014
rhumerus -27.4253 -17.7407 -82.3563
rradius 33.2259
rwrist 0.764057
rhand -8.25174 9.17455
rfingers 7.12502
rthumb 17.6666 -20.0429
lclavicle 1.55052e-014 -3.65764e-014
lhumerus -26.7429 -23.2858 94.3562
lradius 48.6736
lwrist -12.4885
lhand -23.6603 -14.2509
lfingers 7.12502
lthumb 2.80545 15.7103
rfemur -25.0944 -4.91725 17.9169
rtibia 43.714
rfoot -16.0836 15.6229
rtoes -6.83419
lfemur -4.30546 2.37009 -18.3338
ltibia 43.7245
lfoot -18.2656 1.20972
ltoes -19.8458
112
root 1.84109 18.7238 3.42347 -177.843 -10.0223 -181.138
lowerback -0.993331 0.222193 10.0068
upperback 10.8372 -1.84537 1.76586
thorax 12.2481 -0.492865 -3.95524
lowerneck -0.04358 7.24326 2.57034
upperneck 18.2555 10.1455 -9.84676
head 6.16414 4.00324 -3.02643
rclavicle 1.90833e-014 3.49861e-014
rhumerus -27.1321 -17.4795 -82.3957
rradius 33.2833
rwrist 0.593716
rhand -8.28308 9.0768
rfingers 7.12502
rthumb 17.6364 -20.1433
lclavicle 1.90833e-014 3.49861e-014
lhumerus -26.7454 -23.4005 94.4712
lradius 48.7094
lwrist -12.5228
lhand -23.5323 -14.5405
lfingers 7.12502
lthumb 2.92908 15.4192
rfemur -24.9591 -4.77835 17.8342
rtibia 43.4173
rfoot -16.0388 15.6038
rtoes -6.91642
lfemur -4.83542 2.0612 -18.5575
ltibia 44.6502
lfoot -17.7601 1.74594
ltoes -20.4308
113
root 1.84472 18.7415 3.39667 -177.738 -9.82783 -181.264
lowerback -0.865056 0.335104 10.189
upperback 10.9145 -1.71944 1.7748
thorax 12.2866 -0.419628 -4.03143
lowerneck -0.118705 7.38691 2.59744
upperneck 18.1134 10.3844 -10.0313
head 6.15993 4.1207 -3.0696
rclavicle -1.90833e-014 -2.54444e-014
rhumerus -26.8286 -17.3121 -82.4251
rradius 33.3102
rwrist 0.571947
rhand -8.29073 9.03272
rfingers 7.12502
rthumb 17.6291 -20.1881
lclavicle -1.90833e-014 -2.54444e-014
lhumerus -26.7405 -23.5336 94.5534
lradius 48.7436
lwrist -12.6055
lhand -23.4117 -14.8228
lfingers 7.12502
lthumb 3.04556 15.1352
rfemur -24.832 -4.6499 17.7321
rtibia 43.1435
rfoot -16.0036 15.62
rtoes -7.0884
lfemur -5.41168 1.71852 -18.8248
ltibia 45.6921
lfoot -17.326 2.28706
ltoes -20.4035
114
root 1.84807 18.7581 3.37296 -177.657 -9.63347 -181.39
lowerback -0.676157 0.44478 10.3645
upperback 10.9866 -1.59054 1.78965
thorax 12.283 -0.348862 -4.09607
lowerneck -0.203541 7.52375 2.63383
upperneck 17.9815 10.6155 -10.2328
head 6.16202 4.23249 -3.11965
rclavicle 1.98785e-014 8.11041e-014
rhumerus -26.5291 -17.1034 -82.4345
rradius 33.341
rwrist 0.536066
rhand -8.2311 8.9843
rfingers 7.12502
rthumb 17.6865 -20.2313
lclavicle 1.98785e-014 8.11041e-014
lhumerus -26.7332 -23.592 94.6491
lradius 48.7265
lwrist -12.794
lhand -23.2912 -15.1331
lfingers 7.12502
lthumb 3.16192 14.8232
rfemur -24.6964 -4.49808 17.6221
rtibia 42.8862
rfoot -15.972 15.6315
rtoes -7.18028
lfemur -6.02516 1.38167 -19.091
ltibia 46.8362
lfoot -16.9288 2.7739
ltoes -20.4746
115
root 1.85094 18.7736 3.35232 -177.571 -9.44309 -181.532
lowerback -0.460358 0.541896 10.5234
upperback 11.0529 -1.47168 1.79966
thorax 12.2545 -0.285431 -4.15782
lowerneck -0.241291 7.67223 2.68596
upperneck 17.8058 10.8638 -10.4815
head 6.14737 4.35372 -3.18756
rclavicle 1.51076e-014 3.18055e-015
rhumerus -26.2174 -16.8602 -82.4397
rradius 33.3796
rwrist 0.51716
rhand -8.14894 8.91737
rfingers 7.12502
rthumb 17.7655 -20.2911
lclavicle 1.51076e-014 3.18055e-015
lhumerus -26.7555 -23.6455 94.7312
lradius 48.7345
lwrist -12.9369
lhand -23.2744 -15.3158
lfingers 7.12502
lthumb 3.17809 14.6402
rfemur -24.5838 -4.35203 17.4862
rtibia 42.6439
rfoot -15.886 15.6588
rtoes -7.06249
lfemur -6.70197 1.02767 -19.3806
ltibia 48.0727
lfoot -16.5637 3.20733
ltoes -20.3342
116
root 1.85362 18.788 3.3351 -177.5 -9.26083 -181.645
lowerback -0.215879 0.635746 10.7102
upperback 11.1234 -1.36017 1.82403
thorax 12.2148 -0.225609 -4.22017
lowerneck -0.279513 7.81826 2.72497
upperneck 17.6021 11.1117 -10.7609
head 6.12576 4.47322 -3.26292
rclavicle -7.95139e-016 -2.22639e-014
rhumerus -25.8851 -16.6247 -82.4116
rradius 33.418
rwrist 0.486711
rhand -8.02383 8.87142
rfingers 7.12502
rthumb 17.8859 -20.3261
lclavicle -7.95139e-016 -2.22639e-014
lhumerus -26.7557 -23.6402 94.8074
lradius 48.7031
lwrist -13.1448
lhand -23.5302 -15.2146
lfingers 7.12502
lthumb 2.93112 14.745
rfemur -24.4717 -4.20995 17.3842
rtibia 42.4057
rfoot -15.832 15.6694
rtoes -7.07127
lfemur -7.44357 0.70403 -19.6295
ltibia 49.4032
lfoot -16.1576 3.55178
ltoes -20.17
